<svg width="40" height="40" viewBox="0 0 40 40" fill="none" xmlns="http://www.w3.org/2000/svg">
<circle cx="20" cy="20" r="20" fill="#2A2A2A"/>
<g clip-path="url(#clip0_128_52)">
<path d="M20.0007 9.58203C22.8309 9.58203 23.184 9.59245 24.2944 9.64453C25.4038 9.69661 26.159 9.87057 26.8236 10.1289C27.5111 10.3935 28.0902 10.7518 28.6694 11.3299C29.1991 11.8507 29.6089 12.4806 29.8704 13.1758C30.1277 13.8393 30.3027 14.5956 30.3548 15.7049C30.4038 16.8154 30.4173 17.1685 30.4173 19.9987C30.4173 22.8289 30.4069 23.182 30.3548 24.2924C30.3027 25.4018 30.1277 26.157 29.8704 26.8216C29.6097 27.5172 29.1997 28.1473 28.6694 28.6674C28.1485 29.1969 27.5187 29.6068 26.8236 29.8685C26.16 30.1258 25.4038 30.3008 24.2944 30.3529C23.184 30.4018 22.8309 30.4154 20.0007 30.4154C17.1704 30.4154 16.8173 30.4049 15.7069 30.3529C14.5975 30.3008 13.8423 30.1258 13.1777 29.8685C12.4822 29.6075 11.8522 29.1976 11.3319 28.6674C10.8021 28.1468 10.3922 27.5169 10.1309 26.8216C9.87253 26.1581 9.69857 25.4018 9.64648 24.2924C9.59753 23.182 9.58398 22.8289 9.58398 19.9987C9.58398 17.1685 9.5944 16.8154 9.64648 15.7049C9.69857 14.5945 9.87253 13.8404 10.1309 13.1758C10.3915 12.4801 10.8015 11.8501 11.3319 11.3299C11.8524 10.8 12.4823 10.3901 13.1777 10.1289C13.8423 9.87057 14.5965 9.69661 15.7069 9.64453C16.8173 9.59557 17.1704 9.58203 20.0007 9.58203ZM20.0007 14.7904C18.6193 14.7904 17.2946 15.3391 16.3178 16.3159C15.3411 17.2926 14.7923 18.6174 14.7923 19.9987C14.7923 21.38 15.3411 22.7048 16.3178 23.6815C17.2946 24.6583 18.6193 25.207 20.0007 25.207C21.382 25.207 22.7067 24.6583 23.6835 23.6815C24.6603 22.7048 25.209 21.38 25.209 19.9987C25.209 18.6174 24.6603 17.2926 23.6835 16.3159C22.7067 15.3391 21.382 14.7904 20.0007 14.7904ZM26.7715 14.5299C26.7715 14.1846 26.6343 13.8534 26.3901 13.6092C26.1459 13.365 25.8147 13.2279 25.4694 13.2279C25.1241 13.2279 24.7929 13.365 24.5487 13.6092C24.3045 13.8534 24.1673 14.1846 24.1673 14.5299C24.1673 14.8753 24.3045 15.2065 24.5487 15.4507C24.7929 15.6948 25.1241 15.832 25.4694 15.832C25.8147 15.832 26.1459 15.6948 26.3901 15.4507C26.6343 15.2065 26.7715 14.8753 26.7715 14.5299ZM20.0007 16.8737C20.8295 16.8737 21.6243 17.2029 22.2104 17.789C22.7964 18.375 23.1257 19.1699 23.1257 19.9987C23.1257 20.8275 22.7964 21.6224 22.2104 22.2084C21.6243 22.7945 20.8295 23.1237 20.0007 23.1237C19.1719 23.1237 18.377 22.7945 17.7909 22.2084C17.2049 21.6224 16.8757 20.8275 16.8757 19.9987C16.8757 19.1699 17.2049 18.375 17.7909 17.789C18.377 17.2029 19.1719 16.8737 20.0007 16.8737Z" fill="#FFF2D6"/>
</g>
<defs>
<clipPath id="clip0_128_52">
<rect width="25" height="25" fill="white" transform="translate(7.5 7.5)"/>
</clipPath>
</defs>
</svg>
