<svg width="40" height="40" viewBox="0 0 40 40" fill="none" xmlns="http://www.w3.org/2000/svg">
<circle cx="20" cy="20" r="20" fill="#2A2A2A"/>
<g clip-path="url(#clip0_128_46)">
<path d="M14.7292 12.7074C14.7289 13.26 14.5091 13.7898 14.1182 14.1803C13.7273 14.5708 13.1973 14.79 12.6448 14.7897C12.0923 14.7894 11.5625 14.5697 11.172 14.1788C10.7815 13.7879 10.5622 13.2579 10.5625 12.7053C10.5628 12.1528 10.7825 11.623 11.1734 11.2325C11.5643 10.842 12.0943 10.6228 12.6469 10.623C13.1994 10.6233 13.7292 10.8431 14.1197 11.234C14.5102 11.6249 14.7294 12.1549 14.7292 12.7074ZM14.7917 16.3324H10.625V29.3741H14.7917V16.3324ZM21.375 16.3324H17.2292V29.3741H21.3333V22.5303C21.3333 18.7178 26.3021 18.3637 26.3021 22.5303V29.3741H30.4167V21.1137C30.4167 14.6866 23.0625 14.9262 21.3333 18.0824L21.375 16.3324Z" fill="#FFF2D6"/>
</g>
<defs>
<clipPath id="clip0_128_46">
<rect width="25" height="25" fill="white" transform="translate(7.5 7.5)"/>
</clipPath>
</defs>
</svg>
