<svg width="40" height="40" viewBox="0 0 40 40" fill="none" xmlns="http://www.w3.org/2000/svg">
<circle cx="20" cy="20" r="20" fill="#2A2A2A"/>
<g clip-path="url(#clip0_128_70)">
<path d="M30.5858 13.3912C29.7906 13.743 28.9472 13.974 28.0837 14.0766C28.9939 13.5323 29.6751 12.6756 30.0004 11.6662C29.1462 12.1746 28.2098 12.5308 27.2337 12.7235C26.5781 12.022 25.7091 11.5568 24.7618 11.4002C23.8145 11.2435 22.842 11.4042 21.9955 11.8573C21.1489 12.3104 20.4758 13.0305 20.0807 13.9056C19.6856 14.7807 19.5908 15.7618 19.8108 16.6964C18.0786 16.6096 16.3841 16.1595 14.8371 15.3752C13.2902 14.591 11.9255 13.4902 10.8316 12.1443C10.4444 12.8094 10.241 13.5654 10.2421 14.335C10.2421 15.8454 11.0108 17.1798 12.1796 17.961C11.4879 17.9392 10.8115 17.7525 10.2066 17.4162V17.4704C10.2068 18.4763 10.5549 19.4512 11.1919 20.2298C11.8289 21.0084 12.7155 21.5428 13.7014 21.7423C13.0594 21.9163 12.3861 21.9419 11.7327 21.8173C12.0107 22.6831 12.5525 23.4404 13.2823 23.983C14.012 24.5256 14.8932 24.8264 15.8025 24.8433C14.8988 25.553 13.8641 26.0777 12.7576 26.3872C11.651 26.6968 10.4943 26.7852 9.35352 26.6475C11.3449 27.9281 13.663 28.608 16.0306 28.6058C24.0441 28.6058 28.4264 21.9673 28.4264 16.21C28.4264 16.0225 28.4212 15.8329 28.4129 15.6475C29.2659 15.031 30.0021 14.2673 30.5869 13.3923L30.5858 13.3912Z" fill="#FFF2D6"/>
</g>
<defs>
<clipPath id="clip0_128_70">
<rect width="25" height="25" fill="white" transform="translate(7.5 7.5)"/>
</clipPath>
</defs>
</svg>
