<svg width="40" height="40" viewBox="0 0 40 40" fill="none" xmlns="http://www.w3.org/2000/svg">
<circle cx="20" cy="20" r="20" fill="#2A2A2A"/>
<g clip-path="url(#clip0_128_64)">
<path d="M29.9413 14.2701C30.4173 16.1263 30.4173 20.0013 30.4173 20.0013C30.4173 20.0013 30.4173 23.8763 29.9413 25.7326C29.6767 26.7586 28.9027 27.5659 27.9225 27.8388C26.1423 28.3346 20.0007 28.3346 20.0007 28.3346C20.0007 28.3346 13.8621 28.3346 12.0788 27.8388C11.0944 27.5617 10.3215 26.7555 10.06 25.7326C9.58398 23.8763 9.58398 20.0013 9.58398 20.0013C9.58398 20.0013 9.58398 16.1263 10.06 14.2701C10.3246 13.244 11.0986 12.4367 12.0788 12.1638C13.8621 11.668 20.0007 11.668 20.0007 11.668C20.0007 11.668 26.1423 11.668 27.9225 12.1638C28.9069 12.4409 29.6798 13.2471 29.9413 14.2701ZM17.9173 23.6471L24.1673 20.0013L17.9173 16.3555V23.6471Z" fill="#FFF2D6"/>
</g>
<defs>
<clipPath id="clip0_128_64">
<rect width="25" height="25" fill="white" transform="translate(7.5 7.5)"/>
</clipPath>
</defs>
</svg>
