<svg width="1928" height="106" viewBox="0 0 1928 106" fill="none" xmlns="http://www.w3.org/2000/svg">
<g clip-path="url(#clip0_181_198)">
<rect width="1928" height="106" fill="white"/>
<path d="M468 -756.064C285.2 -776.246 86.3333 -713.085 8.5 -696.267L0 80.1584C146.5 106.787 186.5 119.867 519.5 84.3625C852.5 48.8577 978.5 139.488 1333 84.3625C1638.34 36.8809 1842.33 46.0545 1930 68.4783V-712.15C1772 -741.27 1514.6 -758.119 1375 -712.15C1200.5 -654.689 696.5 -730.837 468 -756.064Z" fill="#74C5FF"/>
<path d="M495.5 -721.494C312.7 -741.675 81.3333 -713.084 3.5 -696.267L0.5 72.2162C430 96.5087 385.5 25.7346 688 54.9312C915.5 76.889 1108.5 60.0699 1447.5 11.485C1718.7 -27.3829 1840.33 46.054 1928 68.4778V-689.726C1770 -718.846 1525 -763.071 1279.5 -721.494C997 -673.652 724 -696.267 495.5 -721.494Z" fill="#206CA3"/>
</g>
<defs>
<clipPath id="clip0_181_198">
<rect width="1928" height="106" fill="white"/>
</clipPath>
</defs>
</svg>
