<svg width="1918" height="63" viewBox="0 0 1918 63" fill="none" xmlns="http://www.w3.org/2000/svg">
<g clip-path="url(#clip0_181_174)">
<rect width="1918" height="63" fill="white"/>
<path d="M458 3.93585C275.2 -16.2456 76.3333 46.915 -1.5 63.7329L-10 840.158C136.5 866.787 176.5 879.867 509.5 844.362C842.5 808.858 968.5 899.488 1323 844.362C1628.34 796.881 1832.33 806.055 1920 828.478V47.85C1762 18.7302 1504.6 1.88115 1365 47.85C1190.5 105.311 686.5 29.1626 458 3.93585Z" fill="#74C5FF"/>
<path d="M485.5 38.5061C302.7 18.3247 71.3333 46.9156 -6.5 63.7334L-9.5 832.216C420 856.509 375.5 785.735 678 814.931C905.5 836.889 1098.5 820.07 1437.5 771.485C1708.7 732.617 1830.33 806.054 1918 828.478V70.2737C1760 41.1539 1515 -3.07089 1269.5 38.5056C987 86.3481 714 63.7329 485.5 38.5061Z" fill="#206CA3"/>
</g>
<defs>
<clipPath id="clip0_181_174">
<rect width="1918" height="63" fill="white"/>
</clipPath>
</defs>
</svg>
