<svg width="54" height="54" viewBox="0 0 54 54" fill="none" xmlns="http://www.w3.org/2000/svg">
<path d="M1.14815 14.2608C-1.23268 9.75661 2.72923 4.52212 7.71073 5.59033L22.4342 8.74757C23.8121 9.04306 25.2501 8.84407 26.4961 8.18549L39.8088 1.14865C44.3131 -1.23218 49.5476 2.72972 48.4793 7.71123L45.3221 22.4347C45.0266 23.8126 45.2256 25.2506 45.8842 26.4965L52.921 39.8093C55.3019 44.3136 51.34 49.5481 46.3585 48.4798L31.635 45.3226C30.2571 45.0271 28.8191 45.2261 27.5731 45.8847L14.2603 52.9215C9.75612 55.3024 4.52162 51.3405 5.58984 46.359L8.74708 31.6355C9.04256 30.2576 8.84357 28.8196 8.185 27.5736L1.14815 14.2608Z" fill="#5FC8D7"/>
</svg>
