<svg width="57" height="57" viewBox="0 0 57 57" fill="none" xmlns="http://www.w3.org/2000/svg">
<path d="M33.7465 1.91423C36.121 -0.579354 40.327 0.892967 40.6279 4.32308L42.0213 20.2056C42.1064 21.1756 42.5424 22.0812 43.2475 22.7527L54.7936 33.7474C57.2872 36.1219 55.8149 40.3279 52.3848 40.6289L36.5023 42.0222C35.5323 42.1073 34.6266 42.5433 33.9551 43.2485L22.9604 54.7946C20.5859 57.2882 16.3799 55.8158 16.079 52.3857L14.6856 36.5032C14.6006 35.5332 14.1645 34.6276 13.4594 33.9561L1.91328 22.9614C-0.580304 20.5869 0.892016 16.3809 4.32213 16.0799L20.2046 14.6866C21.1746 14.6015 22.0803 14.1655 22.7518 13.4603L33.7465 1.91423Z" fill="#F9523B"/>
</svg>
