<svg width="53" height="53" viewBox="0 0 53 53" fill="none" xmlns="http://www.w3.org/2000/svg">
<path d="M1.92611 22.9965C-0.0247638 21.3584 0.824779 18.1878 3.33331 17.7447L18.8401 15.0053C19.534 14.8827 20.1626 14.5198 20.6157 13.9801L30.7415 1.92059C32.3795 -0.0302786 35.5501 0.819263 35.9932 3.32779L38.7327 18.8345C38.8552 19.5284 39.2182 20.157 39.7578 20.6102L51.8173 30.7359C53.7682 32.374 52.9187 35.5446 50.4101 35.9877L34.9034 38.7271C34.2095 38.8497 33.5809 39.2126 33.1278 39.7523L23.002 51.8118C21.3639 53.7627 18.1934 52.9131 17.7502 50.4046L15.0108 34.8979C14.8882 34.204 14.5253 33.5754 13.9856 33.1222L1.92611 22.9965Z" fill="#FF6D8D"/>
</svg>
