<svg width="78" height="77" viewBox="0 0 78 77" fill="none" xmlns="http://www.w3.org/2000/svg">
<path d="M29.8525 2.95483C30.8012 -0.355186 35.2106 -0.999475 37.0668 1.90071L49.6238 21.5211C50.1487 22.3413 50.9547 22.9418 51.8908 23.2101L74.2838 29.6283C77.5938 30.577 78.2381 34.9865 75.3379 36.8426L55.7175 49.3996C54.8973 49.9245 54.2968 50.7305 54.0285 51.6666L47.6103 74.0596C46.6616 77.3696 42.2522 78.0139 40.396 75.1137L27.839 55.4933C27.3141 54.6731 26.5081 54.0726 25.572 53.8043L3.17901 47.3861C-0.131004 46.4374 -0.775295 42.028 2.12489 40.1719L21.7453 27.6148C22.5655 27.0899 23.166 26.2839 23.4343 25.3478L29.8525 2.95483Z" fill="#FFB9CA"/>
</svg>
